# xmcd
#
# Track frame offsets:
# 150
# 12776
# 27030
# 42242
# 55777
# 76042
# 90480
# 110551
# 124784
# 135625
# 153608
# 165717
# 176946
# 191202
# 201271
# 214411
# 227494
# 237983
# 250815
# 261388
#
# Disc length: 3657 seconds
#
#
# Revision: 0
# Processed by: cddbd v1.5.1PL2 Copyright (c) Steve Scherf et al.
# Submitted via: FreeRIP 2.944 
#
DISCID=140e4714
DTITLE=John Lee Hooker - Feel The Groove
DYEAR=2006
DGENRE=Blues
TTITLE0=Hobo Blues
TTITLE1=Catfish
TTITLE2=Just Me And My Telephone
TTITLE3=John L's House Rent Blues
TTITLE4=Baby Baby
TTITLE5=Blues For Big Town
TTITLE6=Dazie Mae
TTITLE7=Goin' South
TTITLE8=Gotta Boogie
TTITLE9=House Rent Boogie
TTITLE10=Guitar Lovin' Man
TTITLE11=What Do You Say
TTITLE12=I Need Love So Bad
TTITLE13=I Wanna Walk
TTITLE14=I Want To Hug You
TTITLE15=I'm So Exited
TTITLE16=Keep Your Hands To Yourself
TTITLE17=She Shot Me Down
TTITLE18=Want Ad Blues
TTITLE19=Want To Hug You
EXTD=
EXTT0=
EXTT1=
EXTT2=
EXTT3=
EXTT4=
EXTT5=
EXTT6=
EXTT7=
EXTT8=
EXTT9=
EXTT10=
EXTT11=
EXTT12=
EXTT13=
EXTT14=
EXTT15=
EXTT16=
EXTT17=
EXTT18=
EXTT19=
PLAYORDER=
